# xmcd
#
# Track frame offsets:
#	150
#	4865
#	18168
#	29915
#	42494
#	55115
#	66757
#	78431
#	90169
#	103934
#	116450
#	125621
#	137540
#	150266
#	162094
#	172967
#	185845
#	198300
#	210318
#	222869
#
# Disc length: 3134 seconds
#
# Revision: 2
# Processed by: cddbd v1.5.2PL0 Copyright (c) Steve Scherf et al.
# Submitted via: audiograbber 1.83.01
#
DISCID=060c3c14
DTITLE=Various Artist - Country and Western Original Masters - CD 4
DYEAR=2005
DGENRE=Country
TTITLE0=Gene Autry - Colorado Sunset (1939)
TTITLE1=The Shelton Brothers  - On the Owl Hoot Trail (1939)
TTITLE2=Gene Autry  - Back In The Saddle Again (1939)
TTITLE3=Hank Penny  - Won't You Ride (1940)
TTITLE4=Chuck Wagon Gang  - After The Sunrise (1940)
TTITLE5=Bob Wills  - Now San Antonio Rose (1940)
TTITLE6=Dixie Ramblers  - He's An Army Man (1940)
TTITLE7=Jubileers  - The Right String (1940)
TTITLE8=Sons of Dixie  - Don't Ever Go Wrong (1940)
TTITLE9=Village Boys  - Boogie Woogie In The Village (1940)
TTITLE10=Gene Autry  - That Silver-Haired Daddy of Mine (1940)
TTITLE11=Adolph Hofner  - Alano Rag (1941)
TTITLE12=Johnnie Lee Wills - Milk Cow Blues (1941)
TTITLE13=Ernest Tubb  - Walkin' The Floor Over You (1941)
TTITLE14=Gene Autry  - You Are My Sunshine (1941)
TTITLE15=Bill Mounce  - I Found A New Baby (1941)
TTITLE16=The Villageboys  - Old Joe Is At It Again (1941)
TTITLE17=Bill Mounce  - I've Been Drafted (1941)
TTITLE18=Ernest Tubb - You Nearly Lose Your Mind (1941)
TTITLE19=Roy Acuff  - Wreck On The Highway (1941)
EXTD=
EXTT0=
EXTT1=
EXTT2=
EXTT3=
EXTT4=
EXTT5=
EXTT6=
EXTT7=
EXTT8=
EXTT9=
EXTT10=
EXTT11=
EXTT12=
EXTT13=
EXTT14=
EXTT15=
EXTT16=
EXTT17=
EXTT18=
EXTT19=
PLAYORDER=
